<svg width="16" height="19" viewBox="0 0 16 19" fill="none" xmlns="http://www.w3.org/2000/svg">
<path d="M8.00521 18.168C9.01354 18.168 9.83854 17.343 9.83854 16.3346H6.17188C6.17188 17.343 6.99687 18.168 8.00521 18.168ZM13.5052 12.668V8.08464C13.5052 5.27047 12.011 2.91464 9.38021 2.2913V1.66797C9.38021 0.907135 8.76604 0.292969 8.00521 0.292969C7.24437 0.292969 6.63021 0.907135 6.63021 1.66797V2.2913C4.00854 2.91464 2.50521 5.2613 2.50521 8.08464V12.668L0.671875 14.5013V15.418H15.3385V14.5013L13.5052 12.668ZM11.6719 13.5846H4.33854V8.08464C4.33854 5.8113 5.72271 3.95964 8.00521 3.95964C10.2877 3.95964 11.6719 5.8113 11.6719 8.08464V13.5846Z" fill="white"/>
</svg>
