<svg width="10" height="14" viewBox="0 0 10 14" fill="none" xmlns="http://www.w3.org/2000/svg">
<path d="M9.56788 5.55022C9.51728 5.4596 9.44341 5.38412 9.35391 5.33156C9.2644 5.27901 9.16249 5.25129 9.0587 5.25127H5.57051L6.16792 0.686683C6.18532 0.554257 6.15675 0.41987 6.08699 0.305975C6.01722 0.192081 5.91048 0.105577 5.7846 0.0609181C5.65873 0.016259 5.52134 0.0161495 5.39539 0.0606078C5.26944 0.105066 5.16256 0.191399 5.09262 0.305183L0.445783 7.86241C0.391437 7.95081 0.361652 8.0521 0.3595 8.15584C0.357349 8.25958 0.382909 8.36202 0.433544 8.45259C0.484179 8.54316 0.558056 8.61859 0.647558 8.67109C0.73706 8.72359 0.838946 8.75127 0.94271 8.75127H4.37359L3.8367 13.3231C3.82119 13.4551 3.85121 13.5885 3.9218 13.7011C3.99238 13.8137 4.0993 13.8988 4.22486 13.9423C4.35042 13.9859 4.48709 13.9853 4.61224 13.9406C4.7374 13.8959 4.84354 13.8098 4.9131 13.6965L9.55577 6.14019C9.61006 6.05181 9.6398 5.95055 9.64193 5.84685C9.64405 5.74315 9.61849 5.64076 9.56788 5.55022Z" fill="#FFCE00"/>
</svg>
