<svg width="20" height="20" viewBox="0 0 20 20" fill="none" xmlns="http://www.w3.org/2000/svg">
<path d="M19.3065 17.8886L14.5734 13.1359C15.7904 11.7392 16.4571 9.98185 16.4571 8.15238C16.4571 3.878 12.8551 0.400391 8.42779 0.400391C4.00047 0.400391 0.398438 3.878 0.398438 8.15238C0.398438 12.4268 4.00047 15.9044 8.42779 15.9044C10.0899 15.9044 11.6737 15.4204 13.0279 14.5016L17.797 19.2903C17.9963 19.4902 18.2644 19.6004 18.5518 19.6004C18.8237 19.6004 19.0817 19.5003 19.2775 19.3183C19.6937 18.9317 19.7069 18.2906 19.3065 17.8886ZM8.42779 2.42265C11.7003 2.42265 14.3625 4.99294 14.3625 8.15238C14.3625 11.3118 11.7003 13.8821 8.42779 13.8821C5.15531 13.8821 2.49305 11.3118 2.49305 8.15238C2.49305 4.99294 5.15531 2.42265 8.42779 2.42265Z" fill="white"/>
</svg>
