<svg width="20" height="19" viewBox="0 0 20 19" fill="none" xmlns="http://www.w3.org/2000/svg">
<path d="M18.4136 6.744L13.0896 6.282L11.0106 1.387C10.6366 0.496 9.36059 0.496 8.98659 1.387L6.90759 6.293L1.59459 6.744C0.626591 6.821 0.230591 8.031 0.967591 8.669L5.00459 12.167L3.79459 17.359C3.57459 18.305 4.59759 19.053 5.43359 18.547L9.99859 15.797L14.5636 18.558C15.3996 19.064 16.4226 18.316 16.2026 17.37L14.9926 12.167L19.0296 8.669C19.7666 8.031 19.3816 6.821 18.4136 6.744ZM9.99859 13.74L5.86259 16.237L6.96259 11.529L3.31059 8.361L8.12859 7.943L9.99859 3.51L11.8796 7.954L16.6976 8.372L13.0456 11.54L14.1456 16.248L9.99859 13.74Z" fill="white"/>
</svg>
